<svg xml:space="preserve" width="89.999" height="72.741" xmlns="http://www.w3.org/2000/svg"><path d="M50 13.629a5.737 5.737 0 0 0-2.518 10.895v7.353H34.244c-7.826 0-14.226 6.143-14.676 13.86h-5.017C9.285 45.736 5 50.02 5 55.286v7.676c0 5.265 4.285 9.549 9.55 9.549h5.018c.45 7.715 6.85 13.857 14.676 13.857h31.51c7.826 0 14.226-6.142 14.676-13.857h5.019c5.266 0 9.549-4.285 9.549-9.551v-7.676c0-5.266-4.283-9.549-9.549-9.549H80.43c-.45-7.715-6.85-13.859-14.676-13.859H52.518v-7.353A5.737 5.737 0 0 0 50 13.629zM34.244 36.912h31.51c5.339 0 9.683 4.346 9.683 9.686v25.054c0 5.34-4.344 9.684-9.683 9.684h-31.51c-5.339 0-9.683-4.344-9.683-9.684V46.598c0-5.34 4.344-9.686 9.683-9.686zm4.582 5.574c-4.014 0-7.28 3.266-7.28 7.28s3.267 7.277 7.28 7.277 7.28-3.263 7.28-7.277-3.266-7.28-7.28-7.28zm22.348 0c-4.014 0-7.28 3.266-7.28 7.28s3.267 7.277 7.28 7.277a7.284 7.284 0 0 0 7.277-7.277c0-4.014-3.263-7.28-7.277-7.28zm-22.348 3.2a4.092 4.092 0 0 1 4.08 4.08 4.092 4.092 0 0 1-4.08 4.08 4.092 4.092 0 0 1-4.08-4.08 4.092 4.092 0 0 1 4.08-4.08zm22.348 0a4.092 4.092 0 0 1 4.08 4.08 4.092 4.092 0 0 1-4.08 4.08 4.092 4.092 0 0 1-4.08-4.08 4.092 4.092 0 0 1 4.08-4.08zM14.55 50.772h3.658v16.705h-3.658a4.53 4.53 0 0 1-4.516-4.516v-7.676a4.528 4.528 0 0 1 4.516-4.513zm67.242 0h3.656a4.528 4.528 0 0 1 4.516 4.513v7.676a4.53 4.53 0 0 1-4.516 4.516h-3.656V50.772zM40.84 61.682a6.715 6.715 0 0 0-6.707 6.707 6.715 6.715 0 0 0 6.707 6.707h18.32a6.715 6.715 0 0 0 6.707-6.707 6.715 6.715 0 0 0-6.707-6.707H40.84zm0 3.199h2.87v7.016h-2.87a3.512 3.512 0 0 1-3.508-3.508 3.512 3.512 0 0 1 3.508-3.508zm6.068 0h6.184v7.016h-6.184V64.88zm9.381 0h2.871a3.512 3.512 0 0 1 3.508 3.508 3.512 3.512 0 0 1-3.508 3.508h-2.87V64.88z" style="fill:#9fa4a8;fill-opacity:1" transform="translate(-5 -13.629)"/></svg>